# 3ds Max Wavefront OBJ Exporter v0.97b - (c)2007 guruware
# File Created: 20.01.2020 18:59:19

#
# object GeoSphere001
#

v  0.0000 0.9843 -0.0000
v  0.2690 0.9468 -0.0000
v  0.0831 0.9468 -0.2558
v  0.5175 0.8373 -0.0000
v  0.3561 0.8803 -0.2587
v  0.1599 0.8373 -0.4921
v  0.7266 0.6640 -0.0000
v  0.6081 0.7287 -0.2605
v  0.4357 0.7287 -0.4979
v  0.2245 0.6640 -0.6910
v  0.8803 0.4402 -0.0000
v  0.8097 0.4978 -0.2558
v  0.6774 0.5175 -0.4921
v  0.4935 0.4978 -0.6910
v  0.2720 0.4402 -0.8373
v  -0.2176 0.9468 -0.1581
v  -0.1360 0.8803 -0.4186
v  -0.4186 0.8373 -0.3042
v  -0.0598 0.7287 -0.6589
v  -0.3389 0.7287 -0.5682
v  -0.5878 0.6640 -0.4271
v  0.0069 0.4978 -0.8491
v  -0.2587 0.5175 -0.7963
v  -0.5047 0.4978 -0.6829
v  -0.7122 0.4402 -0.5175
v  -0.2176 0.9468 0.1581
v  -0.4402 0.8803 0.0000
v  -0.4186 0.8373 0.3042
v  -0.6451 0.7287 -0.1467
v  -0.6451 0.7287 0.1467
v  -0.5878 0.6640 0.4271
v  -0.8054 0.4978 -0.2690
v  -0.8373 0.5175 0.0000
v  -0.8054 0.4978 0.2690
v  -0.7122 0.4402 0.5175
v  0.0831 0.9468 0.2558
v  -0.1360 0.8803 0.4186
v  0.1599 0.8373 0.4921
v  -0.3389 0.7287 0.5682
v  -0.0598 0.7287 0.6589
v  0.2245 0.6640 0.6910
v  -0.5047 0.4978 0.6829
v  -0.2587 0.5175 0.7963
v  0.0069 0.4978 0.8491
v  0.2720 0.4402 0.8373
v  0.3561 0.8803 0.2587
v  0.4357 0.7287 0.4979
v  0.6081 0.7287 0.2605
v  0.4935 0.4978 0.6910
v  0.6774 0.5175 0.4921
v  0.8097 0.4978 0.2558
v  0.9441 0.2288 0.1581
v  0.9441 0.2288 -0.1581
v  0.9361 0.0000 0.3042
v  0.9843 0.0000 -0.0000
v  0.9361 0.0000 -0.3042
v  0.8568 -0.2288 0.4271
v  0.9403 -0.2511 0.1467
v  0.9403 -0.2511 -0.1467
v  0.8568 -0.2288 -0.4271
v  0.7122 -0.4402 0.5175
v  0.8054 -0.4978 0.2690
v  0.8373 -0.5175 -0.0000
v  0.8054 -0.4978 -0.2690
v  0.7122 -0.4402 -0.5175
v  0.4421 0.2288 -0.8491
v  0.1414 0.2288 -0.9468
v  0.5785 0.0000 -0.7963
v  0.3042 0.0000 -0.9361
v  -0.0000 0.0000 -0.9843
v  0.6709 -0.2288 -0.6829
v  0.4301 -0.2511 -0.8490
v  0.1511 -0.2511 -0.9396
v  -0.1414 -0.2288 -0.9468
v  0.5047 -0.4978 -0.6829
v  0.2587 -0.5175 -0.7963
v  -0.0069 -0.4978 -0.8491
v  -0.2720 -0.4402 -0.8373
v  -0.6709 0.2288 -0.6829
v  -0.8568 0.2288 -0.4271
v  -0.5785 0.0000 -0.7963
v  -0.7963 0.0000 -0.5785
v  -0.9361 0.0000 -0.3042
v  -0.4421 -0.2288 -0.8491
v  -0.6745 -0.2511 -0.6714
v  -0.8470 -0.2511 -0.4340
v  -0.9441 -0.2288 -0.1581
v  -0.4935 -0.4978 -0.6910
v  -0.6774 -0.5175 -0.4921
v  -0.8097 -0.4978 -0.2558
v  -0.8803 -0.4402 0.0000
v  -0.8568 0.2288 0.4271
v  -0.6709 0.2288 0.6829
v  -0.9361 0.0000 0.3042
v  -0.7963 0.0000 0.5785
v  -0.5785 0.0000 0.7963
v  -0.9441 -0.2288 0.1581
v  -0.8470 -0.2511 0.4340
v  -0.6745 -0.2511 0.6714
v  -0.4421 -0.2288 0.8491
v  -0.8097 -0.4978 0.2558
v  -0.6774 -0.5175 0.4921
v  -0.4935 -0.4978 0.6910
v  -0.2720 -0.4402 0.8373
v  0.1414 0.2288 0.9468
v  0.4421 0.2288 0.8491
v  0.0000 0.0000 0.9843
v  0.3042 0.0000 0.9361
v  0.5785 0.0000 0.7963
v  -0.1414 -0.2288 0.9468
v  0.1511 -0.2511 0.9396
v  0.4301 -0.2511 0.8490
v  0.6709 -0.2288 0.6829
v  -0.0069 -0.4978 0.8491
v  0.2587 -0.5175 0.7963
v  0.5047 -0.4978 0.6829
v  0.7963 0.0000 -0.5785
v  0.6745 0.2511 -0.6714
v  0.8470 0.2511 -0.4340
v  -0.3042 0.0000 -0.9361
v  -0.4301 0.2511 -0.8490
v  -0.1511 0.2511 -0.9396
v  -0.9843 0.0000 0.0000
v  -0.9403 0.2511 0.1467
v  -0.9403 0.2511 -0.1467
v  -0.3042 0.0000 0.9361
v  -0.1511 0.2511 0.9396
v  -0.4301 0.2511 0.8490
v  0.7963 0.0000 0.5785
v  0.8470 0.2511 0.4340
v  0.6745 0.2511 0.6714
v  0.0000 -0.9843 -0.0000
v  -0.0831 -0.9468 -0.2558
v  0.2176 -0.9468 -0.1581
v  -0.1599 -0.8373 -0.4921
v  0.1360 -0.8803 -0.4186
v  0.4186 -0.8373 -0.3042
v  -0.2245 -0.6640 -0.6910
v  0.0598 -0.7287 -0.6589
v  0.3389 -0.7287 -0.5682
v  0.5878 -0.6640 -0.4271
v  -0.2690 -0.9468 0.0000
v  -0.5175 -0.8373 0.0000
v  -0.3561 -0.8803 -0.2587
v  -0.7266 -0.6640 0.0000
v  -0.6081 -0.7287 -0.2605
v  -0.4357 -0.7287 -0.4979
v  -0.0831 -0.9468 0.2558
v  -0.1599 -0.8373 0.4921
v  -0.3561 -0.8803 0.2587
v  -0.2245 -0.6640 0.6910
v  -0.4357 -0.7287 0.4979
v  -0.6081 -0.7287 0.2605
v  0.2176 -0.9468 0.1581
v  0.4186 -0.8373 0.3042
v  0.1360 -0.8803 0.4186
v  0.5878 -0.6640 0.4271
v  0.3389 -0.7287 0.5682
v  0.0598 -0.7287 0.6589
v  0.4402 -0.8803 -0.0000
v  0.6451 -0.7287 -0.1467
v  0.6451 -0.7287 0.1467
# 162 vertices

vn -0.0000 1.0000 -0.0000
vn 0.2713 0.9625 0.0000
vn 0.0838 0.9625 -0.2580
vn 0.5250 0.8511 0.0000
vn 0.3638 0.8932 -0.2643
vn 0.1622 0.8511 -0.4993
vn 0.7394 0.6732 -0.0000
vn 0.6197 0.7376 -0.2680
vn 0.4464 0.7376 -0.5066
vn 0.2285 0.6732 -0.7032
vn 0.8944 0.4472 -0.0000
vn 0.8219 0.5060 -0.2615
vn 0.6882 0.5257 -0.5000
vn 0.5027 0.5060 -0.7009
vn 0.2764 0.4472 -0.8507
vn -0.2195 0.9625 -0.1595
vn -0.1390 0.8932 -0.4277
vn -0.4248 0.8511 -0.3086
vn -0.0634 0.7376 -0.6722
vn -0.3438 0.7376 -0.5811
vn -0.5982 0.6732 -0.4346
vn 0.0053 0.5060 -0.8625
vn -0.2629 0.5257 -0.8090
vn -0.5112 0.5060 -0.6947
vn -0.7236 0.4472 -0.5257
vn -0.2195 0.9625 0.1595
vn -0.4497 0.8932 0.0000
vn -0.4248 0.8511 0.3086
vn -0.6589 0.7376 -0.1474
vn -0.6589 0.7376 0.1474
vn -0.5982 0.6732 0.4346
vn -0.8187 0.5060 -0.2715
vn -0.8507 0.5257 0.0000
vn -0.8187 0.5060 0.2715
vn -0.7236 0.4472 0.5257
vn 0.0838 0.9625 0.2580
vn -0.1390 0.8932 0.4277
vn 0.1622 0.8511 0.4993
vn -0.3438 0.7376 0.5811
vn -0.0634 0.7376 0.6722
vn 0.2285 0.6732 0.7032
vn -0.5112 0.5060 0.6947
vn -0.2629 0.5257 0.8090
vn 0.0053 0.5060 0.8625
vn 0.2764 0.4472 0.8507
vn 0.3638 0.8932 0.2643
vn 0.4464 0.7376 0.5066
vn 0.6197 0.7376 0.2680
vn 0.5027 0.5060 0.7009
vn 0.6882 0.5257 0.5000
vn 0.8219 0.5060 0.2615
vn 0.9584 0.2353 0.1615
vn 0.9584 0.2353 -0.1615
vn 0.9511 -0.0000 0.3090
vn 1.0000 -0.0027 -0.0000
vn 0.9511 0.0000 -0.3090
vn 0.8703 -0.2353 0.4327
vn 0.9544 -0.2595 0.1474
vn 0.9544 -0.2595 -0.1474
vn 0.8703 -0.2353 -0.4327
vn 0.7236 -0.4472 0.5257
vn 0.8187 -0.5060 0.2715
vn 0.8507 -0.5257 -0.0000
vn 0.8187 -0.5060 -0.2715
vn 0.7236 -0.4472 -0.5257
vn 0.4497 0.2353 -0.8616
vn 0.1426 0.2353 -0.9614
vn 0.5878 -0.0000 -0.8090
vn 0.3090 -0.0027 -0.9511
vn -0.0000 0.0000 -1.0000
vn 0.6805 -0.2353 -0.6940
vn 0.4351 -0.2595 -0.8622
vn 0.1547 -0.2595 -0.9533
vn -0.1426 -0.2353 -0.9614
vn 0.5112 -0.5060 -0.6947
vn 0.2629 -0.5257 -0.8090
vn -0.0053 -0.5060 -0.8625
vn -0.2764 -0.4472 -0.8507
vn -0.6805 0.2353 -0.6940
vn -0.8703 0.2353 -0.4327
vn -0.5878 0.0000 -0.8090
vn -0.8090 -0.0027 -0.5878
vn -0.9511 -0.0000 -0.3090
vn -0.4497 -0.2353 -0.8616
vn -0.6855 -0.2595 -0.6803
vn -0.8588 -0.2595 -0.4417
vn -0.9584 -0.2353 -0.1615
vn -0.5027 -0.5060 -0.7009
vn -0.6882 -0.5257 -0.5000
vn -0.8219 -0.5060 -0.2615
vn -0.8944 -0.4472 -0.0000
vn -0.8703 0.2353 0.4327
vn -0.6805 0.2353 0.6940
vn -0.9511 0.0000 0.3090
vn -0.8090 -0.0027 0.5878
vn -0.5878 -0.0000 0.8090
vn -0.9584 -0.2353 0.1615
vn -0.8588 -0.2595 0.4417
vn -0.6855 -0.2595 0.6803
vn -0.4497 -0.2353 0.8616
vn -0.8219 -0.5060 0.2615
vn -0.6882 -0.5257 0.5000
vn -0.5027 -0.5060 0.7009
vn -0.2764 -0.4472 0.8507
vn 0.1426 0.2353 0.9614
vn 0.4497 0.2353 0.8616
vn -0.0000 0.0000 1.0000
vn 0.3090 -0.0027 0.9511
vn 0.5878 -0.0000 0.8090
vn -0.1426 -0.2353 0.9614
vn 0.1547 -0.2595 0.9533
vn 0.4351 -0.2595 0.8622
vn 0.6805 -0.2353 0.6940
vn -0.0053 -0.5060 0.8625
vn 0.2629 -0.5257 0.8090
vn 0.5112 -0.5060 0.6947
vn 0.8090 0.0027 -0.5878
vn 0.6855 0.2595 -0.6803
vn 0.8588 0.2595 -0.4417
vn -0.3090 0.0027 -0.9511
vn -0.4351 0.2595 -0.8622
vn -0.1547 0.2595 -0.9533
vn -1.0000 0.0027 0.0000
vn -0.9544 0.2595 0.1474
vn -0.9544 0.2595 -0.1474
vn -0.3090 0.0027 0.9511
vn -0.1547 0.2595 0.9533
vn -0.4351 0.2595 0.8622
vn 0.8090 0.0027 0.5878
vn 0.8588 0.2595 0.4417
vn 0.6855 0.2595 0.6803
vn -0.0000 -1.0000 0.0000
vn -0.0838 -0.9625 -0.2580
vn 0.2195 -0.9625 -0.1595
vn -0.1622 -0.8511 -0.4993
vn 0.1390 -0.8932 -0.4277
vn 0.4248 -0.8511 -0.3086
vn -0.2285 -0.6732 -0.7032
vn 0.0634 -0.7376 -0.6722
vn 0.3438 -0.7376 -0.5811
vn 0.5982 -0.6732 -0.4346
vn -0.2713 -0.9625 0.0000
vn -0.5250 -0.8511 0.0000
vn -0.3638 -0.8932 -0.2643
vn -0.7394 -0.6732 0.0000
vn -0.6197 -0.7376 -0.2680
vn -0.4464 -0.7376 -0.5066
vn -0.0838 -0.9625 0.2580
vn -0.1622 -0.8511 0.4993
vn -0.3638 -0.8932 0.2643
vn -0.2285 -0.6732 0.7032
vn -0.4464 -0.7376 0.5066
vn -0.6197 -0.7376 0.2680
vn 0.2195 -0.9625 0.1595
vn 0.4248 -0.8511 0.3086
vn 0.1390 -0.8932 0.4277
vn 0.5982 -0.6732 0.4346
vn 0.3438 -0.7376 0.5811
vn 0.0634 -0.7376 0.6722
vn 0.4497 -0.8932 -0.0000
vn 0.6589 -0.7376 -0.1474
vn 0.6589 -0.7376 0.1474
# 162 vertex normals

vt 0.8500 1.0000 1.0000
vt 0.7500 0.9119 1.0000
vt 0.9500 0.9119 1.0000
vt 0.7500 0.8238 1.0000
vt 0.8500 0.8524 1.0000
vt 0.9500 0.8238 1.0000
vt 0.7500 0.7357 1.0000
vt 0.8144 0.7654 1.0000
vt 0.8856 0.7654 1.0000
vt 0.9500 0.7357 1.0000
vt 0.7500 0.6476 1.0000
vt 0.7987 0.6688 1.0000
vt 0.8500 0.6762 1.0000
vt 0.9013 0.6688 1.0000
vt 0.9500 0.6476 1.0000
vt 0.0500 1.0000 1.0000
vt -0.0500 0.9119 1.0000
vt 0.1500 0.9119 1.0000
vt -0.0500 0.8238 1.0000
vt 0.0500 0.8524 1.0000
vt 0.1500 0.8238 1.0000
vt -0.0500 0.7357 1.0000
vt 0.0144 0.7654 1.0000
vt 0.0856 0.7654 1.0000
vt 0.1500 0.7357 1.0000
vt 0.9987 0.6688 1.0000
vt -0.0013 0.6688 1.0000
vt 0.0500 0.6762 1.0000
vt 0.1013 0.6688 1.0000
vt 0.1500 0.6476 1.0000
vt 0.2500 1.0000 1.0000
vt 0.3500 0.9119 1.0000
vt 0.2500 0.8524 1.0000
vt 0.3500 0.8238 1.0000
vt 0.2144 0.7654 1.0000
vt 0.2856 0.7654 1.0000
vt 0.3500 0.7357 1.0000
vt 0.1987 0.6688 1.0000
vt 0.2500 0.6762 1.0000
vt 0.3013 0.6688 1.0000
vt 0.3500 0.6476 1.0000
vt 0.4500 1.0000 1.0000
vt 0.5500 0.9119 1.0000
vt 0.4500 0.8524 1.0000
vt 0.5500 0.8238 1.0000
vt 0.4144 0.7654 1.0000
vt 0.4856 0.7654 1.0000
vt 0.5500 0.7357 1.0000
vt 0.3987 0.6688 1.0000
vt 0.4500 0.6762 1.0000
vt 0.5013 0.6688 1.0000
vt 0.5500 0.6476 1.0000
vt 0.6500 1.0000 1.0000
vt 0.6500 0.8524 1.0000
vt 0.6144 0.7654 1.0000
vt 0.6856 0.7654 1.0000
vt 0.5987 0.6688 1.0000
vt 0.6500 0.6762 1.0000
vt 0.7013 0.6688 1.0000
vt 0.7236 0.5747 1.0000
vt 0.7764 0.5747 1.0000
vt 0.7000 0.5000 1.0000
vt 0.7500 0.5000 1.0000
vt 0.8000 0.5000 1.0000
vt 0.6764 0.4253 1.0000
vt 0.7254 0.4179 1.0000
vt 0.7746 0.4179 1.0000
vt 0.8236 0.4253 1.0000
vt 0.6500 0.3524 1.0000
vt 0.6987 0.3312 1.0000
vt 0.7500 0.3238 1.0000
vt 0.8013 0.3312 1.0000
vt 0.8500 0.3524 1.0000
vt 0.9236 0.5747 1.0000
vt 0.9764 0.5747 1.0000
vt 0.9000 0.5000 1.0000
vt 0.9500 0.5000 1.0000
vt 1.0000 0.5000 1.0000
vt 0.8764 0.4253 1.0000
vt 0.9254 0.4179 1.0000
vt 0.9746 0.4179 1.0000
vt 0.0000 0.5000 1.0000
vt -0.0254 0.4179 1.0000
vt 0.0236 0.4253 1.0000
vt 0.8987 0.3312 1.0000
vt 0.9500 0.3238 1.0000
vt -0.0500 0.3238 1.0000
vt 0.0013 0.3312 1.0000
vt 0.0500 0.3524 1.0000
vt 0.1236 0.5747 1.0000
vt 0.1764 0.5747 1.0000
vt 0.1000 0.5000 1.0000
vt 0.1500 0.5000 1.0000
vt 0.2000 0.5000 1.0000
vt 0.0764 0.4253 1.0000
vt 0.1254 0.4179 1.0000
vt 0.1746 0.4179 1.0000
vt 0.2236 0.4253 1.0000
vt 0.0987 0.3312 1.0000
vt 0.1500 0.3238 1.0000
vt 0.2013 0.3312 1.0000
vt 0.2500 0.3524 1.0000
vt 0.3236 0.5747 1.0000
vt 0.3764 0.5747 1.0000
vt 0.3000 0.5000 1.0000
vt 0.3500 0.5000 1.0000
vt 0.4000 0.5000 1.0000
vt 0.2764 0.4253 1.0000
vt 0.3254 0.4179 1.0000
vt 0.3746 0.4179 1.0000
vt 0.4236 0.4253 1.0000
vt 0.2987 0.3312 1.0000
vt 0.3500 0.3238 1.0000
vt 0.4013 0.3312 1.0000
vt 0.4500 0.3524 1.0000
vt 0.5236 0.5747 1.0000
vt 0.5764 0.5747 1.0000
vt 0.5000 0.5000 1.0000
vt 0.5500 0.5000 1.0000
vt 0.6000 0.5000 1.0000
vt 0.4764 0.4253 1.0000
vt 0.5254 0.4179 1.0000
vt 0.5746 0.4179 1.0000
vt 0.6236 0.4253 1.0000
vt 0.4987 0.3312 1.0000
vt 0.5500 0.3238 1.0000
vt 0.6013 0.3312 1.0000
vt 0.8500 0.5000 1.0000
vt 0.8746 0.5821 1.0000
vt 0.8254 0.5821 1.0000
vt 0.0500 0.5000 1.0000
vt 0.0746 0.5821 1.0000
vt 0.0254 0.5821 1.0000
vt -0.0236 0.5747 1.0000
vt 0.2500 0.5000 1.0000
vt 0.2746 0.5821 1.0000
vt 0.2254 0.5821 1.0000
vt 0.4500 0.5000 1.0000
vt 0.4746 0.5821 1.0000
vt 0.4254 0.5821 1.0000
vt 0.6500 0.5000 1.0000
vt 0.6746 0.5821 1.0000
vt 0.6254 0.5821 1.0000
vt -0.0500 0.0000 1.0000
vt 0.0500 0.0881 1.0000
vt -0.1500 0.0881 1.0000
vt 0.0500 0.1762 1.0000
vt -0.0500 0.1476 1.0000
vt 0.8500 0.0881 1.0000
vt 0.9500 0.1476 1.0000
vt 0.8500 0.1762 1.0000
vt 0.0500 0.2643 1.0000
vt -0.0144 0.2346 1.0000
vt 0.9856 0.2346 1.0000
vt 0.9144 0.2346 1.0000
vt 0.8500 0.2643 1.0000
vt 0.1500 0.0000 1.0000
vt 0.2500 0.0881 1.0000
vt 0.2500 0.1762 1.0000
vt 0.1500 0.1476 1.0000
vt 0.2500 0.2643 1.0000
vt 0.1856 0.2346 1.0000
vt 0.1144 0.2346 1.0000
vt 0.3500 0.0000 1.0000
vt 0.4500 0.0881 1.0000
vt 0.4500 0.1762 1.0000
vt 0.3500 0.1476 1.0000
vt 0.4500 0.2643 1.0000
vt 0.3856 0.2346 1.0000
vt 0.3144 0.2346 1.0000
vt 0.5500 0.0000 1.0000
vt 0.6500 0.0881 1.0000
vt 0.6500 0.1762 1.0000
vt 0.5500 0.1476 1.0000
vt 0.6500 0.2643 1.0000
vt 0.5856 0.2346 1.0000
vt 0.5144 0.2346 1.0000
vt 0.7500 0.0000 1.0000
vt 0.7500 0.1476 1.0000
vt 0.7856 0.2346 1.0000
vt 0.7144 0.2346 1.0000
# 181 texture coords

o GeoSphere001
g GeoSphere001
s 1
f 1/1/1 2/2/2 3/3/3 
f 2/2/2 4/4/4 5/5/5 
f 2/2/2 5/5/5 3/3/3 
f 3/3/3 5/5/5 6/6/6 
f 4/4/4 7/7/7 8/8/8 
f 4/4/4 8/8/8 5/5/5 
f 5/5/5 8/8/8 9/9/9 
f 5/5/5 9/9/9 6/6/6 
f 6/6/6 9/9/9 10/10/10 
f 7/7/7 11/11/11 12/12/12 
f 7/7/7 12/12/12 8/8/8 
f 8/8/8 12/12/12 13/13/13 
f 8/8/8 13/13/13 9/9/9 
f 9/9/9 13/13/13 14/14/14 
f 9/9/9 14/14/14 10/10/10 
f 10/10/10 14/14/14 15/15/15 
f 1/16/1 3/17/3 16/18/16 
f 3/17/3 6/19/6 17/20/17 
f 3/17/3 17/20/17 16/18/16 
f 16/18/16 17/20/17 18/21/18 
f 6/19/6 10/22/10 19/23/19 
f 6/19/6 19/23/19 17/20/17 
f 17/20/17 19/23/19 20/24/20 
f 17/20/17 20/24/20 18/21/18 
f 18/21/18 20/24/20 21/25/21 
f 10/10/10 15/15/15 22/26/22 
f 10/22/10 22/27/22 19/23/19 
f 19/23/19 22/27/22 23/28/23 
f 19/23/19 23/28/23 20/24/20 
f 20/24/20 23/28/23 24/29/24 
f 20/24/20 24/29/24 21/25/21 
f 21/25/21 24/29/24 25/30/25 
f 1/31/1 16/18/16 26/32/26 
f 16/18/16 18/21/18 27/33/27 
f 16/18/16 27/33/27 26/32/26 
f 26/32/26 27/33/27 28/34/28 
f 18/21/18 21/25/21 29/35/29 
f 18/21/18 29/35/29 27/33/27 
f 27/33/27 29/35/29 30/36/30 
f 27/33/27 30/36/30 28/34/28 
f 28/34/28 30/36/30 31/37/31 
f 21/25/21 25/30/25 32/38/32 
f 21/25/21 32/38/32 29/35/29 
f 29/35/29 32/38/32 33/39/33 
f 29/35/29 33/39/33 30/36/30 
f 30/36/30 33/39/33 34/40/34 
f 30/36/30 34/40/34 31/37/31 
f 31/37/31 34/40/34 35/41/35 
f 1/42/1 26/32/26 36/43/36 
f 26/32/26 28/34/28 37/44/37 
f 26/32/26 37/44/37 36/43/36 
f 36/43/36 37/44/37 38/45/38 
f 28/34/28 31/37/31 39/46/39 
f 28/34/28 39/46/39 37/44/37 
f 37/44/37 39/46/39 40/47/40 
f 37/44/37 40/47/40 38/45/38 
f 38/45/38 40/47/40 41/48/41 
f 31/37/31 35/41/35 42/49/42 
f 31/37/31 42/49/42 39/46/39 
f 39/46/39 42/49/42 43/50/43 
f 39/46/39 43/50/43 40/47/40 
f 40/47/40 43/50/43 44/51/44 
f 40/47/40 44/51/44 41/48/41 
f 41/48/41 44/51/44 45/52/45 
f 1/53/1 36/43/36 2/2/2 
f 36/43/36 38/45/38 46/54/46 
f 36/43/36 46/54/46 2/2/2 
f 2/2/2 46/54/46 4/4/4 
f 38/45/38 41/48/41 47/55/47 
f 38/45/38 47/55/47 46/54/46 
f 46/54/46 47/55/47 48/56/48 
f 46/54/46 48/56/48 4/4/4 
f 4/4/4 48/56/48 7/7/7 
f 41/48/41 45/52/45 49/57/49 
f 41/48/41 49/57/49 47/55/47 
f 47/55/47 49/57/49 50/58/50 
f 47/55/47 50/58/50 48/56/48 
f 48/56/48 50/58/50 51/59/51 
f 48/56/48 51/59/51 7/7/7 
f 7/7/7 51/59/51 11/11/11 
f 11/11/11 52/60/52 53/61/53 
f 52/60/52 54/62/54 55/63/55 
f 52/60/52 55/63/55 53/61/53 
f 53/61/53 55/63/55 56/64/56 
f 54/62/54 57/65/57 58/66/58 
f 54/62/54 58/66/58 55/63/55 
f 55/63/55 58/66/58 59/67/59 
f 55/63/55 59/67/59 56/64/56 
f 56/64/56 59/67/59 60/68/60 
f 57/65/57 61/69/61 62/70/62 
f 57/65/57 62/70/62 58/66/58 
f 58/66/58 62/70/62 63/71/63 
f 58/66/58 63/71/63 59/67/59 
f 59/67/59 63/71/63 64/72/64 
f 59/67/59 64/72/64 60/68/60 
f 60/68/60 64/72/64 65/73/65 
f 15/15/15 66/74/66 67/75/67 
f 66/74/66 68/76/68 69/77/69 
f 66/74/66 69/77/69 67/75/67 
f 67/75/67 69/77/69 70/78/70 
f 68/76/68 71/79/71 72/80/72 
f 68/76/68 72/80/72 69/77/69 
f 69/77/69 72/80/72 73/81/73 
f 69/77/69 73/81/73 70/78/70 
f 70/82/70 73/83/73 74/84/74 
f 71/79/71 65/73/65 75/85/75 
f 71/79/71 75/85/75 72/80/72 
f 72/80/72 75/85/75 76/86/76 
f 72/80/72 76/86/76 73/81/73 
f 73/83/73 76/87/76 77/88/77 
f 73/83/73 77/88/77 74/84/74 
f 74/84/74 77/88/77 78/89/78 
f 25/30/25 79/90/79 80/91/80 
f 79/90/79 81/92/81 82/93/82 
f 79/90/79 82/93/82 80/91/80 
f 80/91/80 82/93/82 83/94/83 
f 81/92/81 84/95/84 85/96/85 
f 81/92/81 85/96/85 82/93/82 
f 82/93/82 85/96/85 86/97/86 
f 82/93/82 86/97/86 83/94/83 
f 83/94/83 86/97/86 87/98/87 
f 84/95/84 78/89/78 88/99/88 
f 84/95/84 88/99/88 85/96/85 
f 85/96/85 88/99/88 89/100/89 
f 85/96/85 89/100/89 86/97/86 
f 86/97/86 89/100/89 90/101/90 
f 86/97/86 90/101/90 87/98/87 
f 87/98/87 90/101/90 91/102/91 
f 35/41/35 92/103/92 93/104/93 
f 92/103/92 94/105/94 95/106/95 
f 92/103/92 95/106/95 93/104/93 
f 93/104/93 95/106/95 96/107/96 
f 94/105/94 97/108/97 98/109/98 
f 94/105/94 98/109/98 95/106/95 
f 95/106/95 98/109/98 99/110/99 
f 95/106/95 99/110/99 96/107/96 
f 96/107/96 99/110/99 100/111/100 
f 97/108/97 91/102/91 101/112/101 
f 97/108/97 101/112/101 98/109/98 
f 98/109/98 101/112/101 102/113/102 
f 98/109/98 102/113/102 99/110/99 
f 99/110/99 102/113/102 103/114/103 
f 99/110/99 103/114/103 100/111/100 
f 100/111/100 103/114/103 104/115/104 
f 45/52/45 105/116/105 106/117/106 
f 105/116/105 107/118/107 108/119/108 
f 105/116/105 108/119/108 106/117/106 
f 106/117/106 108/119/108 109/120/109 
f 107/118/107 110/121/110 111/122/111 
f 107/118/107 111/122/111 108/119/108 
f 108/119/108 111/122/111 112/123/112 
f 108/119/108 112/123/112 109/120/109 
f 109/120/109 112/123/112 113/124/113 
f 110/121/110 104/115/104 114/125/114 
f 110/121/110 114/125/114 111/122/111 
f 111/122/111 114/125/114 115/126/115 
f 111/122/111 115/126/115 112/123/112 
f 112/123/112 115/126/115 116/127/116 
f 112/123/112 116/127/116 113/124/113 
f 113/124/113 116/127/116 61/69/61 
f 65/73/65 71/79/71 60/68/60 
f 71/79/71 68/76/68 117/128/117 
f 71/79/71 117/128/117 60/68/60 
f 60/68/60 117/128/117 56/64/56 
f 68/76/68 66/74/66 118/129/118 
f 68/76/68 118/129/118 117/128/117 
f 117/128/117 118/129/118 119/130/119 
f 117/128/117 119/130/119 56/64/56 
f 56/64/56 119/130/119 53/61/53 
f 66/74/66 15/15/15 14/14/14 
f 66/74/66 14/14/14 118/129/118 
f 118/129/118 14/14/14 13/13/13 
f 118/129/118 13/13/13 119/130/119 
f 119/130/119 13/13/13 12/12/12 
f 119/130/119 12/12/12 53/61/53 
f 53/61/53 12/12/12 11/11/11 
f 78/89/78 84/95/84 74/84/74 
f 84/95/84 81/92/81 120/131/120 
f 84/95/84 120/131/120 74/84/74 
f 74/84/74 120/131/120 70/82/70 
f 81/92/81 79/90/79 121/132/121 
f 81/92/81 121/132/121 120/131/120 
f 120/131/120 121/132/121 122/133/122 
f 120/131/120 122/133/122 70/82/70 
f 70/82/70 122/133/122 67/134/67 
f 79/90/79 25/30/25 24/29/24 
f 79/90/79 24/29/24 121/132/121 
f 121/132/121 24/29/24 23/28/23 
f 121/132/121 23/28/23 122/133/122 
f 122/133/122 23/28/23 22/27/22 
f 122/133/122 22/27/22 67/134/67 
f 67/75/67 22/26/22 15/15/15 
f 91/102/91 97/108/97 87/98/87 
f 97/108/97 94/105/94 123/135/123 
f 97/108/97 123/135/123 87/98/87 
f 87/98/87 123/135/123 83/94/83 
f 94/105/94 92/103/92 124/136/124 
f 94/105/94 124/136/124 123/135/123 
f 123/135/123 124/136/124 125/137/125 
f 123/135/123 125/137/125 83/94/83 
f 83/94/83 125/137/125 80/91/80 
f 92/103/92 35/41/35 34/40/34 
f 92/103/92 34/40/34 124/136/124 
f 124/136/124 34/40/34 33/39/33 
f 124/136/124 33/39/33 125/137/125 
f 125/137/125 33/39/33 32/38/32 
f 125/137/125 32/38/32 80/91/80 
f 80/91/80 32/38/32 25/30/25 
f 104/115/104 110/121/110 100/111/100 
f 110/121/110 107/118/107 126/138/126 
f 110/121/110 126/138/126 100/111/100 
f 100/111/100 126/138/126 96/107/96 
f 107/118/107 105/116/105 127/139/127 
f 107/118/107 127/139/127 126/138/126 
f 126/138/126 127/139/127 128/140/128 
f 126/138/126 128/140/128 96/107/96 
f 96/107/96 128/140/128 93/104/93 
f 105/116/105 45/52/45 44/51/44 
f 105/116/105 44/51/44 127/139/127 
f 127/139/127 44/51/44 43/50/43 
f 127/139/127 43/50/43 128/140/128 
f 128/140/128 43/50/43 42/49/42 
f 128/140/128 42/49/42 93/104/93 
f 93/104/93 42/49/42 35/41/35 
f 61/69/61 57/65/57 113/124/113 
f 57/65/57 54/62/54 129/141/129 
f 57/65/57 129/141/129 113/124/113 
f 113/124/113 129/141/129 109/120/109 
f 54/62/54 52/60/52 130/142/130 
f 54/62/54 130/142/130 129/141/129 
f 129/141/129 130/142/130 131/143/131 
f 129/141/129 131/143/131 109/120/109 
f 109/120/109 131/143/131 106/117/106 
f 52/60/52 11/11/11 51/59/51 
f 52/60/52 51/59/51 130/142/130 
f 130/142/130 51/59/51 50/58/50 
f 130/142/130 50/58/50 131/143/131 
f 131/143/131 50/58/50 49/57/49 
f 131/143/131 49/57/49 106/117/106 
f 106/117/106 49/57/49 45/52/45 
f 132/144/132 133/145/133 134/146/134 
f 133/145/133 135/147/135 136/148/136 
f 133/145/133 136/148/136 134/146/134 
f 134/149/134 136/150/136 137/151/137 
f 135/147/135 138/152/138 139/153/139 
f 135/147/135 139/153/139 136/148/136 
f 136/150/136 139/154/139 140/155/140 
f 136/150/136 140/155/140 137/151/137 
f 137/151/137 140/155/140 141/156/141 
f 138/152/138 78/89/78 77/88/77 
f 138/152/138 77/88/77 139/153/139 
f 139/153/139 77/88/77 76/87/76 
f 139/154/139 76/86/76 140/155/140 
f 140/155/140 76/86/76 75/85/75 
f 140/155/140 75/85/75 141/156/141 
f 141/156/141 75/85/75 65/73/65 
f 132/157/132 142/158/142 133/145/133 
f 142/158/142 143/159/143 144/160/144 
f 142/158/142 144/160/144 133/145/133 
f 133/145/133 144/160/144 135/147/135 
f 143/159/143 145/161/145 146/162/146 
f 143/159/143 146/162/146 144/160/144 
f 144/160/144 146/162/146 147/163/147 
f 144/160/144 147/163/147 135/147/135 
f 135/147/135 147/163/147 138/152/138 
f 145/161/145 91/102/91 90/101/90 
f 145/161/145 90/101/90 146/162/146 
f 146/162/146 90/101/90 89/100/89 
f 146/162/146 89/100/89 147/163/147 
f 147/163/147 89/100/89 88/99/88 
f 147/163/147 88/99/88 138/152/138 
f 138/152/138 88/99/88 78/89/78 
f 132/164/132 148/165/148 142/158/142 
f 148/165/148 149/166/149 150/167/150 
f 148/165/148 150/167/150 142/158/142 
f 142/158/142 150/167/150 143/159/143 
f 149/166/149 151/168/151 152/169/152 
f 149/166/149 152/169/152 150/167/150 
f 150/167/150 152/169/152 153/170/153 
f 150/167/150 153/170/153 143/159/143 
f 143/159/143 153/170/153 145/161/145 
f 151/168/151 104/115/104 103/114/103 
f 151/168/151 103/114/103 152/169/152 
f 152/169/152 103/114/103 102/113/102 
f 152/169/152 102/113/102 153/170/153 
f 153/170/153 102/113/102 101/112/101 
f 153/170/153 101/112/101 145/161/145 
f 145/161/145 101/112/101 91/102/91 
f 132/171/132 154/172/154 148/165/148 
f 154/172/154 155/173/155 156/174/156 
f 154/172/154 156/174/156 148/165/148 
f 148/165/148 156/174/156 149/166/149 
f 155/173/155 157/175/157 158/176/158 
f 155/173/155 158/176/158 156/174/156 
f 156/174/156 158/176/158 159/177/159 
f 156/174/156 159/177/159 149/166/149 
f 149/166/149 159/177/159 151/168/151 
f 157/175/157 61/69/61 116/127/116 
f 157/175/157 116/127/116 158/176/158 
f 158/176/158 116/127/116 115/126/115 
f 158/176/158 115/126/115 159/177/159 
f 159/177/159 115/126/115 114/125/114 
f 159/177/159 114/125/114 151/168/151 
f 151/168/151 114/125/114 104/115/104 
f 132/178/132 134/149/134 154/172/154 
f 134/149/134 137/151/137 160/179/160 
f 134/149/134 160/179/160 154/172/154 
f 154/172/154 160/179/160 155/173/155 
f 137/151/137 141/156/141 161/180/161 
f 137/151/137 161/180/161 160/179/160 
f 160/179/160 161/180/161 162/181/162 
f 160/179/160 162/181/162 155/173/155 
f 155/173/155 162/181/162 157/175/157 
f 141/156/141 65/73/65 64/72/64 
f 141/156/141 64/72/64 161/180/161 
f 161/180/161 64/72/64 63/71/63 
f 161/180/161 63/71/63 162/181/162 
f 162/181/162 63/71/63 62/70/62 
f 162/181/162 62/70/62 157/175/157 
f 157/175/157 62/70/62 61/69/61 
# 0 polygons - 320 triangles

